<svg class="border shadow-md dark:border-slate-700" viewBox="0 0 747.12 747.12" style="width: 747.12px; height: 747.12px;" xmlns="http://www.w3.org/2000/svg" preserveAspectRatio="none"><rect class="bg" id="bg" x="0" y="0" width="747.12" height="747.12" fill="#ffffff"/><g transform="rotate(23 373.56 373.56)"><path d="M -249.04 637.12 S -134.52 637.12&#10;            0.00 637.12 114.52 585.12&#10;            249.04 637.12 363.56 617.12&#10;            498.08 637.12 612.60 618.12&#10;            747.12 637.12 786.16 619.12&#10;            996.16 637.12 h 110 V 1347.12 H -249.04 Z" fill="#1C7092"/><path d="M -249.04 135.00 S -239.00 74.00&#10;            0.00 135.00 114.52 53.00&#10;            249.04 135.00 308.08 77.50&#10;            498.08 135.00 612.60 30.00&#10;            747.12 135.00 861.64 77.50&#10;            996.16 135.00 h 110 V -600 H -249.04 Z" fill="#EAEBEB"/></g></svg>